<svg height="512pt" viewBox="0 -85 512.00001 512" width="512pt" xmlns="http://www.w3.org/2000/svg"><path d="m196.703125 238.148438c0 51.550781-41.789063 93.339843-93.339844 93.339843-51.546875 0-93.339843-41.789062-93.339843-93.339843 0-51.550782 41.792968-93.339844 93.339843-93.339844 51.550781 0 93.339844 41.789062 93.339844 93.339844zm0 0" fill="#78e08f"/><path d="m501.976562 238.148438c0 51.550781-41.792968 93.339843-93.339843 93.339843-51.550781 0-93.339844-41.789062-93.339844-93.339843 0-51.550782 41.789063-93.339844 93.339844-93.339844 51.546875 0 93.339843 41.789062 93.339843 93.339844zm0 0" fill="#78e08f"/><path d="m162.367188 58.988281h38.4375c10.804687 0 19.5625 8.757813 19.5625 19.5625v.3125c0 10.804688-8.757813 19.5625-19.5625 19.5625h-38.4375c-10.804688 0-19.5625-8.757812-19.5625-19.5625v-.3125c0-10.804687 8.757812-19.5625 19.5625-19.5625zm0 0" fill="#ff6c6c"/><path d="m408.636719 134.785156c-12.410157 0-24.3125 2.199219-35.34375 6.226563l-12.53125-26.203125c-.140625-.453125-.3125-.898438-.519531-1.332032l-9.070313-18.996093c-.222656-.46875-.480469-.90625-.765625-1.324219l-14.683594-30.703125h13.285156c17.21875 0 31.226563-14.007813 31.226563-31.226563s-14.007813-31.226562-31.226563-31.226562h-35.796874c-5.535157 0-10.023438 4.488281-10.023438 10.023438 0 5.539062 4.488281 10.027343 10.023438 10.027343h35.796874c6.164063 0 11.179688 5.011719 11.179688 11.175781 0 6.164063-5.015625 11.175782-11.179688 11.175782h-29.191406c-3.445312 0-6.648437 1.769531-8.484375 4.679687-1.832031 2.914063-2.046875 6.5625-.5625 9.671875l15.3125 32.019532h-97.402343c1.105468-3.101563 1.714843-6.433594 1.714843-9.910157v-.3125c0-16.316406-13.273437-29.589843-29.589843-29.589843h-38.441407c-16.3125 0-29.585937 13.273437-29.585937 29.589843v.3125c0 16.316407 13.273437 29.589844 29.585937 29.589844h15.808594l-25.894531 38.65625c-14.570313-7.859375-31.226563-12.324219-48.910156-12.324219-57 0-103.367188 46.367188-103.367188 103.363282 0 56.996093 46.367188 103.367187 103.363281 103.367187 53.617188 0 97.820313-41.03125 102.878907-93.339844h53.566406c.410156 0 .8125-.03125 1.214844-.078125.132812-.015625.265624-.050781.398437-.070312.261719-.042969.523437-.085938.78125-.148438.160156-.039062.3125-.09375.46875-.140625.226563-.066406.453125-.132812.675781-.21875.160156-.058593.3125-.132812.46875-.203125.210938-.089844.414063-.179687.617188-.285156.15625-.082031.304687-.171875.457031-.261719.195313-.113281.382813-.226562.566406-.355469.148438-.097656.292969-.207031.433594-.316406.175781-.132812.34375-.269531.511719-.414062.136718-.121094.273437-.25.40625-.378906.152344-.148438.300781-.304688.445312-.46875.128906-.140626.253906-.285157.375-.433594.050782-.066406.113282-.125.164063-.191406l81.375-107.171876 6.050781 12.648438c-29.914062 18.128906-49.945312 51-49.945312 88.460938 0 56.996093 46.367187 103.363281 103.363281 103.363281 56.996093 0 103.363281-46.367188 103.363281-103.363281 0-56.996094-46.367188-103.363282-103.363281-103.363282zm-255.808594-55.921875v-.3125c0-5.261719 4.28125-9.539062 9.539063-9.539062h38.4375c5.261718 0 9.539062 4.277343 9.539062 9.539062v.3125c0 5.261719-4.277344 9.539063-9.539062 9.539063h-38.4375c-5.257813 0-9.539063-4.277344-9.539063-9.539063zm-49.464844 242.601563c-45.9375 0-83.3125-37.375-83.3125-83.316406 0-45.9375 37.375-83.3125 83.3125-83.3125 13.558594 0 26.359375 3.273437 37.683594 9.042968l-46.011719 68.691406c-2.058594 3.074219-2.257812 7.035157-.515625 10.300782 1.746094 3.265625 5.144531 5.304687 8.84375 5.304687h50.078125c-1.511718 5.183594-3 7.894531-6.019531 12.78125-2.90625 4.710938-1.441406 10.886719 3.269531 13.796875 1.640625 1.011719 3.457032 1.492188 5.253906 1.492188 3.363282 0 6.644532-1.691406 8.542969-4.761719 4.199219-6.804687 6.441407-11.195313 8.625-19.207031.371094-1.355469.695313-2.726563 1-4.101563h11.941407c-4.96875 41.226563-40.144532 73.289063-82.691407 73.289063zm82.691407-93.339844h-63.910157l35.542969-53.0625c15.34375 13.226562 25.820312 31.933594 28.367188 53.0625zm20.1875 0c-2.714844-28.050781-16.679688-52.859375-37.320313-69.832031l26.085937-38.945313 19.203126 42.414063 30.050781 66.363281zm55.757812-9.4375-5.957031-13.152344-43.792969-96.714844h123.421875l3.765625 7.878907zm146.636719 102.777344c-45.941407 0-83.316407-37.375-83.316407-83.316406 0-29.492188 15.421876-55.4375 38.605469-70.246094l35.667969 74.570312c1.71875 3.601563 5.308594 5.703125 9.046875 5.703125 1.453125 0 2.925781-.316406 4.320313-.980469 4.996093-2.390624 7.109374-8.375 4.71875-13.371093l-35.675782-74.597657c8.367188-2.832031 17.320313-4.390624 26.632813-4.390624 45.941406 0 83.316406 37.375 83.316406 83.3125 0 45.941406-37.378906 83.316406-83.316406 83.316406zm0 0"/><path d="m480.117188 225.472656c-.121094-5.535156-4.691407-9.890625-10.242188-9.800781-5.535156.121094-9.921875 4.710937-9.800781 10.246094.203125 9.164062.304687 13.765625-2.613281 23.726562-1.25 4.253907-3.179688 8.417969-5.042969 10.855469-3.359375 4.402344-2.515625 10.695312 1.886719 14.054688 1.816406 1.386718 3.953124 2.054687 6.074218 2.054687 3.019532 0 6.003906-1.355469 7.976563-3.941406 4.761719-6.242188 7.421875-14.234375 8.347656-17.382813 3.789063-12.945312 3.632813-20.019531 3.414063-29.8125zm0 0"/><path d="m438.925781 284.398438-.304687-.125c-5.121094-2.113282-10.980469.328124-13.089844 5.449218-2.109375 5.117188.328125 10.976563 5.449219 13.089844l.304687.125c1.25.515625 2.542969.757812 3.816406.757812 3.941407 0 7.679688-2.335937 9.273438-6.207031 2.109375-5.121093-.328125-10.980469-5.449219-13.089843zm0 0"/><path d="m134.167969 285.75-.277344-.179688c-4.648437-3.011718-10.855469-1.683593-13.867187 2.960938-3.007813 4.648438-1.683594 10.855469 2.964843 13.867188l.277344.179687c1.683594 1.089844 3.570313 1.609375 5.441406 1.609375 3.285157 0 6.503907-1.609375 8.421875-4.574219 3.011719-4.644531 1.683594-10.851562-2.960937-13.863281zm0 0"/></svg>